<!--
Copyright 2016-present Thomas Leplus

Licensed under the Apache License, Version 2.0 (the "License");
you may not use this file except in compliance with the License.
You may obtain a copy of the License at

    http://www.apache.org/licenses/LICENSE-2.0

Unless required by applicable law or agreed to in writing, software
distributed under the License is distributed on an "AS IS" BASIS,
WITHOUT WARRANTIES OR CONDITIONS OF ANY KIND, either express or implied.
See the License for the specific language governing permissions and
limitations under the License.
-->
<svg height='300px' width='300px' fill="#000000" xmlns="http://www.w3.org/2000/svg" xmlns:xlink="http://www.w3.org/1999/xlink" viewBox="0 0 48 48" version="1.1" x="0px" y="0px"><title>ristretto</title><g stroke="none" stroke-width="1" fill="none" fill-rule="evenodd"><path d="M35.6086849,14.5441304 C35.6397985,14.6770393 35.6709121,14.8099482 35.7020257,14.9428571 C36.1568429,16.8857143 36.1542723,23 35.2472085,27.0571429 C34.3401446,31.1142857 33.615761,32.5275139 32.1186264,34.2571429 C31.2519254,35.2873712 30.1032549,36.0252811 29.091892,36.5428571 C28.080529,37.0604332 25.8681203,37 24.0473345,37 C22.2264527,37 20.0141401,37.0604332 19.0027771,36.5428571 C17.9914142,36.0252811 16.8427437,35.2873712 15.9760427,34.2571429 C14.478908,32.5275139 13.7545245,31.1142857 12.8474606,27.0571429 C11.9403968,23 11.7180373,17.9937456 12.3926434,14.9428571 C12.4216096,14.8118581 12.4493391,14.6866097 12.4758319,14.5671122 C12.6788047,13.6515706 13.4906501,13 14.4284211,13 L33.6613321,13 C34.5902831,13 35.3969446,13.6396327 35.6086849,14.5441304 Z M33.6618549,16.2353043 C33.4924627,15.5117061 32.8471335,15 32.1039726,15 L15.9701875,15 C15.2200481,15 14.5706201,15.5211589 14.408175,16.2534982 L14.4081541,16.2534935 C14.3825982,16.3687057 14.3556144,16.4905571 14.3272028,16.6190476 C13.7650311,19.1614547 13.9503306,23.3333333 14.7062172,26.7142857 C15.4621037,30.0952381 16.0657567,31.2729282 17.3133689,32.7142857 C18.0356198,33.5728094 18.9928451,34.1877342 19.8356476,34.6190476 C20.6784501,35.050361 22.522044,35 24.0394454,35 C25.5567669,35 27.4004408,35.050361 28.2432433,34.6190476 C29.0860458,34.1877342 30.0432711,33.5728094 30.765522,32.7142857 C32.0131342,31.2729282 32.6167872,30.0952381 33.3726737,26.7142857 C34.1285603,23.3333333 34.1307024,18.2380952 33.7516881,16.6190476 C33.7217437,16.4911332 33.6917993,16.3632187 33.6618549,16.2353043 Z M32,27 C32.1564844,28.954023 31.4898178,30.6206897 30,32 C27.7652734,34.0689655 25.3117315,34 24.0111556,34 C22.7105111,34 20,34 18,32 C16.6666667,30.6666667 16,29 16,27 L32,27 Z" fill="#000000" fill-rule="nonzero"></path></g></svg>
